<svg xmlns="http://www.w3.org/2000/svg" viewBox="0 0 1600 600" preserveAspectRatio="xMidYMid slice">
  <defs>
    <linearGradient id="g" x1="0" y1="0" x2="1" y2="0">
      <stop offset="0" stop-color="#0f172a"/>
      <stop offset="1" stop-color="#1e293b"/>
    </linearGradient>
  </defs>
  <rect width="1600" height="600" fill="url(#g)"/>
  <g fill="#334155" opacity="0.7">
    <rect x="120" y="160" width="200" height="280" rx="6"/>
    <rect x="360" y="120" width="200" height="320" rx="6"/>
    <rect x="600" y="180" width="200" height="260" rx="6"/>
    <rect x="840" y="140" width="200" height="300" rx="6"/>
    <rect x="1080" y="180" width="200" height="260" rx="6"/>
    <rect x="1320" y="140" width="200" height="300" rx="6"/>
  </g>
  <g fill="#475569" opacity="0.5">
    <rect x="160" y="200" width="60" height="60"/>
    <rect x="400" y="160" width="60" height="60"/>
    <rect x="640" y="220" width="60" height="60"/>
    <rect x="880" y="180" width="60" height="60"/>
    <rect x="1120" y="220" width="60" height="60"/>
    <rect x="1360" y="180" width="60" height="60"/>
  </g>
</svg>
